<svg width="30" height="30" viewBox="0 0 30 30" fill="none" xmlns="http://www.w3.org/2000/svg">
<path d="M29.3402 5.09828L24.5902 0.348278C24.4799 0.237868 24.3489 0.150279 24.2047 0.0905192C24.0606 0.0307591 23.9061 0 23.75 0C23.5939 0 23.4394 0.0307591 23.2953 0.0905192C23.1511 0.150279 23.0201 0.237868 22.9098 0.348278L8.65984 14.5983C8.5496 14.7086 8.46219 14.8396 8.40259 14.9838C8.34299 15.128 8.31238 15.2824 8.3125 15.4384V20.1884C8.3125 20.5034 8.43761 20.8054 8.66031 21.0281C8.88301 21.2508 9.18506 21.3759 9.5 21.3759H14.25C14.406 21.3761 14.5605 21.3454 14.7046 21.2858C14.8488 21.2262 14.9798 21.1388 15.0902 21.0286L29.3402 6.77859C29.4506 6.6683 29.5382 6.53734 29.5979 6.39318C29.6577 6.24902 29.6884 6.09449 29.6884 5.93843C29.6884 5.78238 29.6577 5.62785 29.5979 5.48369C29.5382 5.33953 29.4506 5.20856 29.3402 5.09828ZM13.7587 19.0009H10.6875V15.9298L20.1875 6.42976L23.2587 9.50093L13.7587 19.0009ZM24.9375 7.82211L21.8663 4.75093L23.75 2.86726L26.8212 5.93843L24.9375 7.82211ZM28.5 15.4384V27.3134C28.5 27.9433 28.2498 28.5474 27.8044 28.9928C27.359 29.4382 26.7549 29.6884 26.125 29.6884H2.375C1.74511 29.6884 1.14102 29.4382 0.695621 28.9928C0.250222 28.5474 0 27.9433 0 27.3134V3.56343C0 2.93354 0.250222 2.32945 0.695621 1.88406C1.14102 1.43866 1.74511 1.18843 2.375 1.18843H14.25C14.5649 1.18843 14.867 1.31355 15.0897 1.53624C15.3124 1.75894 15.4375 2.06099 15.4375 2.37593C15.4375 2.69088 15.3124 2.99292 15.0897 3.21562C14.867 3.43832 14.5649 3.56343 14.25 3.56343H2.375V27.3134H26.125V15.4384C26.125 15.1235 26.2501 14.8214 26.4728 14.5987C26.6955 14.376 26.9976 14.2509 27.3125 14.2509C27.6274 14.2509 27.9295 14.376 28.1522 14.5987C28.3749 14.8214 28.5 15.1235 28.5 15.4384Z" fill="black"/>
</svg>
